<?xml version="1.0" standalone="no"?>
<!DOCTYPE svg PUBLIC "-//W3C//DTD SVG 20010904//EN"
 "http://www.w3.org/TR/2001/REC-SVG-20010904/DTD/svg10.dtd">
<svg version="1.0" xmlns="http://www.w3.org/2000/svg"
 width="168.000000pt" height="299.000000pt" viewBox="0 0 168.000000 299.000000"
 preserveAspectRatio="xMidYMid meet">

<g transform="translate(0.000000,299.000000) scale(0.100000,-0.100000)"
fill="#000000" stroke="none">
<path d="M705 2910 c-3 -5 -35 -28 -70 -51 -60 -38 -115 -95 -115 -117 0 -13
-40 -62 -51 -62 -5 0 -9 8 -9 18 0 28 -57 25 -77 -4 -19 -30 -21 -98 -3 -119
7 -9 11 -17 9 -19 -2 -1 -15 -10 -29 -20 l-25 -17 39 7 c29 5 37 4 31 -5 -4
-7 -13 -10 -20 -7 -7 2 -18 -1 -24 -7 -10 -9 -16 -8 -26 7 -10 14 -30 19 -75
22 l-60 4 15 -37 c9 -20 26 -51 40 -69 l24 -31 -37 18 c-36 19 -62 24 -62 13
0 -15 64 -93 86 -104 18 -10 23 -19 19 -39 -2 -14 -2 -50 2 -78 4 -39 10 -54
24 -58 11 -4 19 -15 19 -26 0 -16 5 -19 20 -14 15 5 22 -1 34 -29 8 -20 20
-36 27 -36 8 0 7 -6 -3 -17 -9 -10 -19 -28 -22 -40 -8 -25 10 -103 24 -103 5
0 7 6 4 14 -3 9 1 13 13 13 26 -3 29 49 8 135 -14 54 -15 71 -5 83 17 21 33 7
25 -22 -4 -16 -2 -22 5 -18 6 4 10 -4 10 -17 0 -13 6 -30 13 -37 10 -11 9 -12
-3 -6 -11 6 -10 3 3 -12 20 -23 23 -38 5 -27 -8 5 -7 0 2 -12 33 -43 57 -46
35 -4 -18 35 -19 99 -1 122 13 17 57 38 79 38 7 0 0 -10 -15 -21 -25 -19 -41
-48 -19 -34 12 7 24 -12 16 -25 -5 -8 -11 -7 -21 1 -25 21 -17 -46 9 -77 23
-26 24 -26 50 -10 14 10 34 19 44 20 14 3 18 12 17 42 -1 22 -7 53 -14 69 -7
17 -14 39 -15 49 -3 26 -55 68 -77 62 -10 -2 -18 0 -18 6 0 6 -8 7 -17 3 -10
-4 -24 -10 -32 -13 -9 -3 -12 -1 -8 5 14 23 58 24 103 2 51 -26 64 -20 40 16
-22 33 -16 54 8 30 17 -17 17 -17 14 1 -2 16 6 20 52 27 30 4 67 12 83 16 15
5 27 8 27 8 0 -1 -4 -17 -9 -35 -5 -17 -7 -32 -4 -32 2 0 24 14 48 31 40 29
47 31 97 24 29 -4 64 -11 78 -16 24 -9 24 -9 5 6 -11 9 -29 22 -40 30 -17 12
-18 14 -3 14 9 1 20 -3 23 -9 12 -20 25 -9 19 15 -10 41 29 32 67 -15 18 -22
35 -38 38 -35 10 10 43 -91 55 -170 l13 -80 13 47 c13 49 38 73 81 80 22 3 25
9 30 73 5 50 2 80 -8 105 -7 19 -11 46 -8 61 4 17 1 30 -6 35 -9 5 -10 2 -6
-10 4 -9 3 -15 -2 -12 -4 3 -11 25 -14 49 -3 24 -11 56 -17 72 -9 23 -13 26
-20 15 -7 -10 -10 -11 -10 -2 0 25 -21 11 -26 -18 -4 -16 -11 -30 -16 -30 -5
0 -6 10 -3 23 7 22 7 22 -8 2 -15 -19 -16 -19 -32 20 -9 22 -20 50 -25 63 -7
15 -33 34 -73 52 -34 15 -64 27 -66 25 -2 -2 10 -15 25 -29 16 -13 26 -27 23
-30 -7 -7 -104 66 -105 79 -2 19 -56 37 -132 43 -64 5 -71 7 -43 13 18 4 47 3
65 -2 44 -13 63 -12 49 2 -13 13 -154 19 -195 8 -34 -9 -34 -8 -3 39 13 20 27
52 31 70 6 31 1 42 -11 22z m-5 -165 c-19 -7 -39 -10 -45 -7 -5 3 -25 9 -45
12 -24 5 -11 7 45 8 76 0 78 -1 45 -13z m340 -211 c0 -2 -9 0 -20 6 -11 6 -20
13 -20 16 0 2 9 0 20 -6 11 -6 20 -13 20 -16z m111 -7 c12 -22 12 -22 -10 -3
-11 11 -21 23 -21 28 0 14 19 -1 31 -25z m-551 -239 c0 -5 -9 -4 -20 2 -11 6
-20 12 -20 14 0 2 9 2 20 -1 11 -3 20 -9 20 -15z"/>
<path d="M880 2790 c0 -6 7 -13 15 -16 8 -4 12 -10 9 -15 -3 -5 4 -9 15 -9 10
0 21 -4 23 -8 2 -5 27 -12 56 -15 49 -6 52 -5 42 13 -20 38 -61 60 -111 60
-27 0 -49 -5 -49 -10z"/>
<path d="M1181 2544 c0 -11 3 -14 6 -6 3 7 2 16 -1 19 -3 4 -6 -2 -5 -13z"/>
<path d="M886 2189 c-17 -20 -25 -41 -25 -62 2 -27 3 -28 6 -7 2 14 12 36 23
50 16 21 27 25 74 25 62 0 100 -26 115 -79 9 -30 9 -29 10 14 1 42 -2 46 -39
68 -26 15 -55 22 -89 22 -43 0 -53 -4 -75 -31z"/>
<path d="M921 2156 c-24 -26 -31 -77 -13 -99 13 -15 118 -18 140 -4 6 5 12 24
12 43 0 74 -90 113 -139 60z m19 -32 c0 -17 -22 -14 -28 4 -2 7 3 12 12 12 9
0 16 -7 16 -16z"/>
<path d="M436 2123 c-6 -14 -5 -15 5 -6 7 7 10 15 7 18 -3 3 -9 -2 -12 -12z"/>
<path d="M1199 1928 c-33 -49 -78 -88 -100 -88 -10 0 -19 -5 -19 -11 0 -6 -9
-9 -20 -6 -11 3 -17 1 -14 -4 3 -5 -18 -21 -48 -35 -29 -14 -64 -32 -78 -40
-39 -21 -97 -18 -105 6 -3 11 -13 20 -21 20 -8 0 -14 6 -14 13 0 8 -19 12 -67
10 -38 0 -68 -2 -68 -3 0 -1 -10 -3 -23 -6 -14 -2 -21 0 -17 6 3 6 -5 10 -19
10 -14 0 -27 4 -30 9 -6 9 -56 22 -56 14 0 -11 73 -75 97 -84 16 -6 64 -17
108 -24 77 -12 79 -13 50 -24 -72 -29 -125 -118 -125 -211 0 -32 -7 -63 -15
-74 -8 -11 -15 -30 -15 -44 0 -13 -4 -20 -10 -17 -5 3 -10 -3 -10 -13 0 -11
-6 -22 -14 -25 -11 -4 -12 -14 -6 -40 9 -43 0 -59 -31 -57 -13 1 -33 1 -44 0
l-20 -1 20 -9 c34 -15 139 -12 161 5 30 22 47 20 32 -5 -10 -16 -10 -22 -1
-28 10 -6 9 -14 -2 -36 -20 -38 -19 -43 5 -21 12 10 18 25 16 32 -6 15 3 17
21 5 14 -9 -2 -92 -32 -172 -10 -26 -14 -59 -11 -78 2 -18 1 -30 -4 -27 -30
19 -28 -193 2 -232 6 -7 25 -15 43 -19 29 -5 36 -12 49 -52 9 -25 16 -67 16
-93 0 -26 5 -60 11 -76 9 -24 7 -30 -10 -42 -25 -16 -29 -54 -6 -44 9 3 15 1
13 -5 -2 -6 6 -17 16 -25 10 -8 16 -19 12 -25 -12 -19 -33 -14 -40 11 l-6 22
-13 -22 c-12 -21 -15 -23 -38 -23 -5 0 -8 -4 -5 -9 3 -5 -4 -9 -17 -10 -121
-6 -167 -24 -167 -66 0 -33 21 -54 60 -60 24 -4 29 -3 15 3 -13 6 16 11 90 15
61 4 132 10 159 14 43 5 48 4 43 -11 -5 -13 1 -16 34 -16 36 0 41 2 36 20 -3
11 -1 20 4 20 5 0 9 38 9 84 0 80 -1 86 -27 106 -26 20 -28 26 -25 84 3 50 -2
75 -22 124 -31 73 -31 78 -9 86 11 5 23 -1 34 -15 11 -15 23 -20 37 -17 17 5
25 -4 46 -52 14 -32 26 -67 26 -78 0 -12 11 -47 25 -77 22 -52 23 -58 9 -79
-11 -18 -12 -30 -5 -50 12 -30 23 -33 41 -11 11 13 10 14 -4 9 -20 -8 -21 0 0
20 8 9 26 16 39 16 l24 0 -24 -26 c-14 -15 -25 -33 -25 -40 0 -7 -5 -14 -11
-16 -17 -6 -47 -93 -42 -122 4 -19 12 -26 29 -26 12 0 26 5 29 10 3 6 43 10
87 10 l81 0 -6 37 c-4 21 -11 39 -17 41 -5 2 -10 10 -10 17 0 8 -16 30 -34 50
-27 29 -40 35 -57 30 -14 -5 -19 -4 -15 4 4 6 22 11 40 11 32 0 57 -18 69 -50
3 -8 6 9 6 38 1 50 -1 53 -33 68 -32 16 -34 20 -40 85 l-7 68 -41 -15 c-64
-22 -75 -19 -82 24 -4 20 -9 49 -12 64 -5 24 -2 27 30 34 21 3 36 12 36 20 0
8 9 14 20 14 33 0 43 36 37 137 l-5 93 49 0 c46 0 49 -2 49 -25 0 -18 5 -25
20 -25 12 0 20 7 20 18 0 11 9 17 26 19 46 2 94 33 94 60 0 9 -7 10 -26 3 -14
-6 -45 -10 -68 -10 -48 0 -71 18 -86 69 -8 28 -5 36 22 67 33 38 33 33 0 158
-15 55 -17 78 -9 110 11 44 33 76 52 76 34 0 85 -157 85 -264 0 -38 29 -136
40 -136 17 0 30 78 30 173 0 94 2 106 16 100 13 -5 15 -2 9 18 -20 71 -32 96
-52 112 -12 10 -24 26 -28 36 -6 19 -72 57 -82 48 -2 -3 1 -16 8 -28 10 -20 9
-25 -6 -34 -10 -5 -40 -25 -66 -42 -54 -36 -69 -40 -69 -18 0 8 -4 15 -9 15
-4 0 -21 28 -37 63 -29 64 -34 112 -21 200 5 38 4 47 -8 47 -18 0 -20 36 -2
44 6 4 -17 4 -51 1 -58 -4 -64 -3 -69 15 -3 12 -14 20 -27 21 -15 0 -12 4 14
14 19 7 47 16 63 19 15 4 45 22 66 41 25 23 44 33 55 29 21 -8 52 20 77 69
l19 37 -24 0 c-17 0 -32 -11 -47 -32z m-234 -349 c-5 -47 -2 -85 9 -129 17
-64 84 -198 116 -230 37 -37 51 -70 61 -136 5 -37 12 -77 15 -90 6 -23 3 -24
-39 -24 -34 0 -67 -12 -140 -50 -100 -53 -127 -60 -127 -35 0 9 -8 32 -19 53
-30 59 -53 178 -46 241 3 31 16 126 28 211 l22 155 28 -3 c33 -4 36 16 7 43
-25 23 -22 37 11 42 13 2 25 7 27 12 2 5 14 8 28 7 25 -1 25 -2 19 -67z m-221
-64 c-4 -8 2 -27 11 -42 14 -20 16 -39 12 -82 -7 -65 -35 -223 -41 -229 -2 -2
-14 1 -25 8 -18 9 -20 14 -10 33 7 12 17 26 23 30 6 5 -1 6 -17 3 -27 -6 -27
-6 -22 31 15 115 35 268 35 275 0 5 9 4 20 -2 11 -6 17 -16 14 -25z m691 -155
c-3 -5 -1 -10 4 -10 6 0 11 -10 11 -22 l0 -22 -16 22 c-13 19 -12 42 2 42 3 0
2 -4 -1 -10z m-320 -19 c-6 -5 -21 -11 -35 -15 -21 -5 -20 -3 5 9 35 17 42 18
30 6z m119 -1042 c-3 -5 -17 -9 -32 -8 -15 0 -21 3 -14 6 6 2 10 8 7 12 -2 5
7 6 20 3 14 -2 22 -8 19 -13z m-29 -59 c4 -6 -6 -7 -25 -4 -21 5 -30 3 -30 -6
0 -8 -3 -11 -6 -7 -3 3 -3 10 1 16 8 14 52 14 60 1z"/>
<path d="M907 1896 c-9 -13 -31 -29 -49 -34 -51 -16 -100 -23 -94 -14 3 5 -8
6 -25 4 -17 -3 -29 0 -29 7 0 6 -8 11 -17 11 -14 0 -13 -5 9 -27 54 -53 176
-20 219 60 14 25 4 21 -14 -7z"/>
<path d="M438 1858 c6 -6 18 -8 28 -6 14 3 12 5 -9 10 -19 3 -25 2 -19 -4z"/>
<path d="M1185 1700 c3 -6 -4 -10 -16 -10 -12 0 -19 -3 -16 -6 3 -4 2 -16 -4
-27 -9 -15 -8 -18 2 -11 9 5 36 -18 86 -72 40 -43 70 -71 67 -61 -4 10 -1 17
6 17 6 0 8 4 5 10 -3 6 1 7 9 4 13 -5 16 2 16 40 0 25 -4 46 -9 46 -5 0 -7 10
-5 23 l5 22 -10 -22 c-10 -21 -53 -30 -45 -8 5 13 -5 27 -36 48 -27 18 -65 23
-55 7z"/>
<path d="M410 1316 c0 -2 7 -7 16 -10 8 -3 12 -2 9 4 -6 10 -25 14 -25 6z"/>
<path d="M320 1300 c0 -5 6 -10 14 -10 7 0 29 -2 47 -5 28 -4 26 -3 -11 10
-54 18 -50 17 -50 5z"/>
<path d="M430 1270 c0 -5 7 -10 16 -10 8 0 12 5 9 10 -3 6 -10 10 -16 10 -5 0
-9 -4 -9 -10z"/>
<path d="M320 1237 c0 -13 5 -28 12 -35 14 -14 78 -16 78 -2 0 6 -13 10 -29
10 -16 0 -34 7 -41 15 -11 13 -7 15 30 15 52 0 50 5 -7 14 -40 6 -43 5 -43
-17z"/>
<path d="M1173 63 c9 -2 25 -2 35 0 9 3 1 5 -18 5 -19 0 -27 -2 -17 -5z"/>
</g>
</svg>
