<?xml version="1.0" standalone="no"?>
<!DOCTYPE svg PUBLIC "-//W3C//DTD SVG 20010904//EN"
 "http://www.w3.org/TR/2001/REC-SVG-20010904/DTD/svg10.dtd">
<svg version="1.0" xmlns="http://www.w3.org/2000/svg"
 width="600.000000pt" height="400.000000pt" viewBox="0 0 600.000000 400.000000"
 preserveAspectRatio="xMidYMid meet">

<g transform="translate(0.000000,400.000000) scale(0.100000,-0.100000)"
fill="#000000" stroke="none">
<path d="M3 2000 l1 -2000 2998 0 2998 0 0 2000 0 2000 -1356 0 c-1205 0
-1355 -2 -1344 -15 7 -8 19 -15 26 -15 8 0 14 -4 14 -10 0 -11 64 -30 104 -30
21 0 38 -11 66 -42 21 -24 53 -51 71 -61 32 -17 32 -17 9 0 -43 30 -93 83 -86
91 4 3 11 0 16 -8 6 -10 12 -11 22 -2 8 6 34 11 58 10 l44 0 -29 -24 c-39 -31
-24 -31 23 1 20 14 42 25 48 25 20 0 23 -24 5 -44 -13 -16 -13 -18 -1 -11 8 4
22 14 32 22 9 8 25 16 35 18 10 2 18 4 18 6 0 1 11 3 24 4 l24 2 -24 -18 c-13
-10 -21 -21 -17 -24 7 -7 48 16 48 26 0 4 9 5 21 2 12 -4 25 0 30 8 5 9 9 -43
10 -131 1 -80 4 -247 8 -373 3 -125 5 -227 4 -227 -1 0 -28 12 -60 26 -84 39
-223 45 -325 14 -89 -27 -157 -63 -195 -103 -27 -28 -25 -28 24 7 48 34 52 36
63 19 10 -16 10 -15 5 5 -4 12 -5 22 -3 22 2 0 19 4 38 10 32 9 25 0 -69 -91
-74 -71 -101 -103 -92 -108 9 -6 0 -18 -33 -41 -25 -19 -44 -35 -43 -37 2 -2
31 11 64 28 34 17 67 29 74 27 16 -5 -74 -62 -124 -78 -41 -13 -44 -28 -7 -47
23 -11 23 -12 5 -20 -17 -6 -15 -8 15 -16 19 -5 58 -12 85 -15 l50 -7 5 -45
c4 -32 7 -38 10 -21 6 32 37 52 50 31 5 -8 7 -17 4 -21 -7 -13 46 -16 69 -4
40 20 277 -10 277 -35 0 -6 6 -10 13 -10 14 0 37 -40 37 -65 0 -8 5 -15 12
-15 15 0 -20 -38 -54 -58 -33 -19 -35 -31 -8 -64 10 -14 17 -28 13 -31 -3 -3
-3 -22 1 -40 14 -73 104 -50 192 47 54 60 57 61 107 61 29 0 58 4 65 9 21 13
27 -3 9 -22 -13 -12 -33 -17 -70 -17 -50 1 -53 -1 -90 -47 l-37 -48 54 0 c60
0 106 16 106 37 0 7 5 13 10 13 6 0 10 6 10 14 0 8 6 21 13 28 53 54 62 114
22 153 -13 14 -33 25 -45 25 -27 0 -26 9 17 93 49 95 52 164 9 225 -16 23 -42
50 -59 61 l-31 19 40 7 c65 11 72 19 19 24 l-50 6 24 17 c14 10 22 20 19 23
-3 3 -17 -5 -33 -17 -23 -18 -31 -19 -46 -9 -16 9 -21 9 -26 -4 -5 -14 -9 -13
-29 6 -13 12 -20 28 -17 37 4 8 7 31 8 51 0 20 2 64 3 99 l2 63 52 -3 c49 -3
52 -5 60 -35 5 -17 18 -40 31 -50 12 -10 30 -30 39 -45 10 -14 28 -30 40 -33
13 -4 31 -17 41 -29 10 -11 16 -14 12 -6 -4 8 9 -1 27 -20 l35 -36 12 276 c13
285 19 344 36 347 7 1 7 -74 2 -220 -7 -200 -4 -813 5 -822 1 -2 68 -7 147
-11 l144 -7 -8 69 c-6 63 -6 67 9 54 12 -9 20 -10 27 -3 7 7 2 12 -15 17 -24
6 -26 11 -26 62 0 30 3 53 8 51 43 -25 145 -57 180 -57 15 0 23 -8 28 -27 3
-16 10 -41 14 -58 5 -16 12 -52 16 -80 7 -54 7 -54 28 37 6 25 8 27 32 16 17
-8 23 -16 18 -27 -16 -38 -14 -58 5 -81 20 -23 22 -24 34 -8 12 16 15 12 27
-36 15 -64 9 -104 -28 -171 -20 -37 -35 -52 -59 -59 -27 -7 -33 -14 -33 -37 0
-15 11 -45 25 -65 36 -53 31 -61 -10 -16 -24 27 -49 42 -82 51 -88 23 -113 24
-132 7 -15 -13 -23 -14 -50 -5 -51 18 -196 6 -265 -22 -57 -22 -136 -84 -136
-106 0 -6 20 10 45 35 25 25 48 42 51 39 7 -7 -103 -146 -121 -153 -7 -3 -16
-15 -19 -27 -5 -22 -5 -22 -20 -2 -14 19 -15 16 -14 -38 1 -54 -13 -90 -28
-74 -15 15 -8 152 9 185 29 54 10 36 -38 -35 -55 -83 -59 -105 -43 -214 13
-83 13 -85 -7 -87 -11 0 -30 5 -42 13 -20 14 -21 16 -7 62 8 26 15 86 17 133
2 75 -2 92 -27 147 -15 34 -39 72 -52 84 -32 30 -89 52 -141 54 -24 1 -48 7
-55 12 -18 15 -51 0 -54 -23 -10 -68 -7 -84 15 -84 12 0 22 -9 26 -22 4 -13
15 -32 25 -43 30 -32 32 -65 12 -158 -22 -98 -23 -97 51 -75 22 7 56 27 74 46
19 19 36 32 39 30 2 -3 6 -18 10 -34 5 -25 0 -34 -40 -67 -52 -43 -96 -63 -96
-44 0 9 -3 8 -9 -1 -4 -8 -12 -14 -17 -14 -5 0 -18 -4 -29 -8 -11 -4 -28 -9
-37 -11 -23 -5 -159 -123 -147 -127 5 -2 28 6 52 19 103 56 120 62 178 64 39
1 64 7 70 16 7 11 11 11 17 2 5 -8 33 -13 78 -13 38 1 78 0 88 0 11 -1 22 4
26 11 6 8 9 8 13 -2 3 -8 5 -3 4 11 -1 48 3 80 12 80 5 0 11 -8 13 -18 4 -15
87 -72 104 -72 2 0 1 29 -3 63 l-6 64 32 -5 c28 -4 32 -1 42 27 10 29 11 30
35 15 28 -19 31 -34 7 -35 -10 0 -4 -5 12 -10 17 -6 82 -7 153 -4 89 5 127 3
138 -5 7 -7 14 -9 14 -6 0 4 6 1 14 -6 10 -9 10 -17 3 -29 -8 -13 -6 -24 7
-43 9 -15 21 -24 26 -21 21 13 9 -25 -12 -39 -48 -34 -116 -6 -144 58 -11 25
-13 27 -14 10 0 -30 31 -66 90 -104 28 -18 55 -41 61 -51 20 -38 82 -16 142
50 20 23 37 46 37 53 0 6 3 9 6 6 9 -10 -24 -64 -56 -91 -33 -29 -36 -34 -17
-40 6 -2 3 -3 -8 -1 -10 2 -37 -1 -60 -6 -22 -5 -62 -12 -88 -15 -36 -5 -47
-10 -43 -21 4 -11 -6 -14 -49 -14 -30 0 -55 -4 -55 -9 0 -5 16 -7 35 -4 24 3
49 -3 81 -18 42 -21 44 -24 27 -37 -17 -13 -17 -14 1 -27 17 -13 15 -14 -19
-21 -21 -4 -47 -2 -61 5 -15 7 -23 7 -19 1 3 -5 1 -10 -6 -10 -7 0 3 -17 24
-37 27 -29 35 -45 33 -66 -4 -43 -16 -48 -74 -33 -57 14 -70 6 -22 -14 17 -7
33 -17 37 -23 3 -6 1 -7 -6 -3 -6 4 -18 2 -26 -4 -9 -8 -28 -10 -51 -6 -28 6
-34 11 -29 24 16 37 43 150 49 202 l6 55 -21 -70 c-11 -38 -22 -72 -25 -75 -3
-2 -14 6 -25 20 -17 21 -19 22 -10 3 14 -29 14 -30 -9 -28 -10 1 -28 10 -40
20 -25 22 -26 13 -3 -22 13 -19 14 -28 5 -31 -6 -2 -12 -14 -12 -28 0 -21 -3
-22 -25 -14 l-24 9 29 -48 c28 -45 33 -48 100 -65 38 -9 128 -22 200 -28 126
-12 131 -11 167 9 35 20 38 26 41 70 4 68 13 86 23 43 13 -56 1 -97 -46 -144
-23 -24 -44 -50 -47 -57 -6 -15 -191 -119 -211 -119 -7 0 -30 6 -51 14 -26 9
-50 11 -68 5 -26 -7 -30 -5 -45 29 -9 20 -16 60 -16 87 0 34 -5 54 -16 62 -14
11 -14 12 2 13 39 0 8 30 -32 30 -14 0 -18 -8 -17 -37 1 -25 6 -38 15 -38 14
0 29 -28 30 -55 0 -10 -6 -6 -19 10 -11 14 -20 21 -20 16 0 -5 11 -23 24 -40
23 -31 56 -90 56 -101 0 -3 -10 -5 -22 -6 -13 0 -17 -3 -10 -6 7 -3 29 3 49
12 31 15 43 16 93 5 52 -11 60 -10 97 9 49 24 62 17 27 -15 -35 -33 -54 -36
-184 -25 -97 8 -138 17 -264 60 -82 28 -154 51 -160 50 -14 -1 65 -36 128 -56
50 -17 50 -17 21 -25 -31 -8 -180 4 -272 23 -79 16 -86 27 -78 118 4 42 8 77
9 77 0 1 16 -1 34 -3 30 -5 33 -8 27 -32 -10 -41 10 -12 23 34 7 22 20 51 31
64 l18 24 7 -57 c7 -54 9 -56 37 -56 34 0 39 9 66 120 l18 75 9 -80 c4 -44 10
-81 11 -83 1 -1 25 3 54 10 41 9 51 15 51 32 0 26 21 58 73 113 21 22 37 46
33 51 -6 10 128 135 154 144 8 2 -9 7 -38 11 -68 8 -131 43 -161 89 l-23 36
-34 -20 c-40 -24 -71 -17 -80 18 -3 13 -8 24 -11 24 -3 0 -37 -14 -76 -32 -60
-26 -88 -32 -162 -35 l-90 -4 28 23 c42 36 32 39 -25 7 -50 -27 -59 -29 -175
-29 -70 0 -124 4 -128 10 -3 5 1 20 9 32 11 15 16 45 16 89 0 56 -6 77 -35
136 -37 75 -139 194 -186 219 -42 21 -36 11 12 -20 56 -38 44 -42 -27 -9 -54
26 -69 28 -174 28 -125 0 -167 -13 -219 -69 -30 -32 -45 -33 -37 -2 9 36 -4
39 -38 7 -165 -152 -151 -134 -163 -213 -9 -63 -8 -148 2 -148 19 0 55 23 60
39 3 11 21 25 39 31 63 21 126 -24 126 -89 0 -39 -14 -47 -28 -15 -24 52 -98
47 -133 -10 -10 -17 -19 -26 -19 -21 -1 21 -17 35 -33 29 -14 -5 -13 -9 8 -29
14 -12 25 -31 25 -42 0 -29 32 -53 71 -53 41 0 74 21 94 61 24 45 57 39 89
-15 14 -24 38 -53 53 -65 l28 -20 -43 -1 c-24 0 -52 5 -63 11 -11 5 -28 9 -37
7 -12 -3 0 -15 38 -40 31 -20 61 -48 68 -63 l13 -28 -68 6 c-132 11 -193 43
-233 124 -14 29 -28 52 -32 52 -5 1 -9 -25 -9 -56 -1 -44 -3 -51 -8 -28 -6 27
-7 25 -17 -27 -6 -32 -7 -58 -3 -58 15 0 58 27 52 33 -10 11 7 8 64 -10 29 -9
53 -20 53 -25 0 -4 -19 -8 -42 -8 -24 -1 -79 -7 -123 -15 -44 -8 -82 -15 -85
-15 -3 0 9 9 27 20 38 23 51 61 60 178 l6 82 -216 0 -216 0 -26 45 c-15 24
-40 56 -56 69 -31 26 -36 36 -18 36 14 0 141 -82 157 -103 11 -13 17 -14 32
-5 10 7 17 15 14 19 -2 4 2 7 9 6 34 -1 48 4 41 15 -4 6 -3 8 3 5 8 -5 217 65
230 77 0 0 4 18 8 39 7 37 7 37 -20 27 -36 -14 -48 -13 -42 4 3 8 -2 20 -11
28 -9 7 -13 8 -9 1 11 -18 -3 -42 -20 -36 -11 4 -14 2 -9 -5 4 -7 17 -12 29
-12 32 0 14 -12 -125 -85 -71 -37 -129 -61 -132 -56 -4 5 -34 27 -69 48 -44
27 -73 38 -102 38 l-40 0 -7 66 c-7 75 -41 163 -72 184 -12 9 -44 15 -77 15
-31 0 -78 7 -105 15 -27 8 -63 15 -79 15 -17 0 -37 6 -44 13 -10 9 -15 9 -18
0 -3 -8 -12 -9 -29 -3 -25 10 -110 -3 -149 -22 -11 -6 -44 -33 -74 -62 -44
-42 -52 -47 -46 -26 18 61 90 125 168 150 20 6 35 15 33 18 -2 4 0 104 4 222
l8 215 -26 45 c-14 25 -34 61 -44 80 l-20 35 6 -215 c4 -118 9 -254 12 -302
l6 -86 -36 -17 c-19 -9 -53 -36 -74 -59 l-40 -43 -7 131 c-4 72 -4 313 0 536
l8 405 28 1 29 1 1 -451 c1 -248 5 -464 8 -481 4 -16 8 170 10 414 1 245 3
447 5 449 10 10 48 -97 47 -133 0 -26 2 -35 8 -27 6 10 11 6 19 -17 6 -17 8
-31 4 -31 -3 0 4 -7 16 -16 25 -17 98 -154 83 -154 -5 0 -12 8 -16 18 -3 9
-19 33 -35 52 -36 42 -42 17 -7 -27 13 -15 27 -36 30 -46 5 -13 13 -16 27 -12
13 4 20 2 20 -6 0 -7 -3 -9 -7 -6 -3 4 -14 -10 -23 -30 -15 -33 -15 -42 -3
-65 7 -16 17 -28 22 -28 5 0 21 16 36 37 l28 36 -22 18 c-27 22 -18 43 15 35
23 -6 23 -6 8 31 -27 66 -55 127 -76 160 -16 28 -23 31 -39 23 -15 -9 -21 -7
-25 7 -19 56 -69 152 -91 175 -26 27 -26 27 -19 150 4 68 12 125 17 126 5 2
10 29 11 60 0 32 4 -19 9 -113 7 -165 8 -172 42 -245 l34 -75 6 60 c4 33 10
130 14 215 4 85 9 145 11 133 2 -17 10 -23 28 -23 15 0 24 6 24 15 0 8 9 15
20 15 11 0 20 -7 20 -15 0 -8 7 -15 16 -15 9 0 22 -8 29 -17 10 -14 14 11 19
138 4 85 12 224 17 309 5 85 10 175 10 200 1 25 4 34 6 20 3 -23 8 -25 38 -22
19 2 32 8 29 13 -3 5 3 9 13 9 11 0 24 5 29 10 14 14 31 -6 37 -45 3 -22 4
-17 6 18 l1 47 -984 0 -984 0 1 -2000z m3737 1916 c0 -2 -7 -6 -15 -10 -8 -3
-15 -1 -15 4 0 6 7 10 15 10 8 0 15 -2 15 -4z m-2243 -583 c-3 -10 -5 -4 -5
12 0 17 2 24 5 18 2 -7 2 -21 0 -30z m3183 18 c0 -10 -7 -21 -15 -25 -8 -3
-15 -10 -15 -16 0 -5 7 -10 15 -10 19 0 19 -4 -1 -43 -22 -42 -33 -48 -69 -41
-47 10 -49 15 -13 32 23 12 41 33 58 69 26 54 40 66 40 34z m-3751 -166 c103
-9 191 -76 191 -146 0 -28 2 -29 45 -29 41 0 51 -5 100 -52 52 -49 55 -55 55
-101 0 -26 -5 -57 -11 -68 -8 -15 -7 -24 2 -35 19 -23 27 0 30 82 1 38 7 85
13 104 10 35 10 34 17 -30 10 -95 10 -230 1 -230 -4 0 -5 -26 -1 -57 4 -32 7
-177 8 -322 1 -145 4 -268 7 -272 2 -5 -4 -26 -16 -48 -11 -22 -20 -56 -20
-76 0 -36 -1 -36 -32 -30 -45 10 -51 14 -45 36 3 10 1 22 -4 25 -5 3 -9 -3 -9
-13 -1 -23 -36 -66 -49 -59 -5 3 -14 -1 -21 -9 -7 -8 -20 -15 -29 -15 -10 0
-36 -9 -59 -20 -22 -11 -46 -20 -52 -20 -6 0 -24 -7 -40 -15 -30 -15 -30 -15
-30 14 0 35 28 50 156 85 l89 23 -1 39 c-1 21 -7 40 -13 42 -6 2 -11 12 -11
22 0 34 -37 34 -77 1 -40 -33 -48 -34 -38 -2 8 25 72 71 98 71 10 0 15 5 12
10 -4 6 -15 8 -26 5 -25 -8 -49 16 -49 49 0 13 -11 38 -25 54 -14 17 -25 35
-25 41 0 6 -7 11 -15 11 -8 0 -15 7 -15 15 0 8 -4 15 -10 15 -5 0 -10 -19 -10
-42 -1 -40 -2 -42 -15 -23 -8 11 -19 25 -25 32 -28 33 5 60 59 48 26 -5 71
-43 107 -90 15 -19 15 -19 4 3 -7 15 -7 22 0 22 5 0 10 -5 10 -12 0 -16 39 31
61 74 10 21 19 53 19 72 0 26 5 36 20 41 11 3 20 12 20 20 0 7 5 15 11 17 14
5 20 78 6 78 -7 0 -7 4 1 12 7 7 12 21 12 31 0 17 -5 15 -35 -12 -36 -31 -76
-48 -93 -37 -5 3 -16 -10 -25 -29 -21 -43 -82 -112 -116 -130 l-26 -13 0 57
c0 31 -4 57 -9 58 -5 0 -13 8 -18 17 -5 9 -24 22 -41 30 -28 11 -33 19 -35 52
l-2 39 15 -34 c9 -19 17 -32 20 -29 9 8 -8 78 -17 72 -14 -9 8 30 24 43 19 15
57 22 64 12 7 -12 44 -11 44 1 0 6 -6 10 -13 10 -8 0 -19 11 -25 25 -7 14 -19
28 -27 31 -8 4 -15 12 -15 20 0 7 6 11 14 8 10 -4 12 2 9 21 -5 21 -3 24 13
18 11 -3 23 -12 27 -20 4 -7 15 -13 22 -13 8 0 15 -4 15 -10 0 -5 5 -10 11
-10 5 0 7 6 3 13 -4 6 -4 9 1 5 4 -4 23 -40 41 -80 32 -71 33 -72 43 -45 9 24
16 28 43 25 24 -2 36 -10 46 -31 16 -32 29 -27 48 20 13 30 13 38 -1 68 -9 18
-23 36 -30 39 -11 4 -11 14 2 56 13 46 13 53 -1 75 -9 14 -21 25 -26 25 -5 0
-16 13 -25 29 -18 36 -70 56 -109 42 -25 -10 -26 -9 -26 28 0 43 -29 92 -73
125 -20 15 -43 21 -81 21 -37 0 -58 5 -71 18 -22 23 -76 16 -117 -14 -16 -11
-28 -15 -28 -9 0 6 15 19 33 31 24 15 42 18 72 14 22 -3 64 -7 94 -10z m3841
0 c0 11 60 16 60 6 0 -12 -64 -75 -117 -115 -71 -54 -87 -94 -80 -196 4 -70 3
-80 -11 -80 -10 0 -29 21 -44 49 -50 88 -31 179 55 265 54 53 118 90 129 73 4
-7 8 -7 8 -2z m-3313 -57 c-3 -7 -5 -2 -5 12 0 14 2 19 5 13 2 -7 2 -19 0 -25z
m-100 -110 c-2 -18 -4 -4 -4 32 0 36 2 50 4 33 2 -18 2 -48 0 -65z m-760 30
c-3 -8 -6 -5 -6 6 -1 11 2 17 5 13 3 -3 4 -12 1 -19z m3948 -232 c4 -18 12
-33 18 -33 39 1 57 -5 57 -18 0 -17 -55 -21 -65 -5 -3 6 -17 10 -31 10 -16 0
-24 6 -24 18 0 9 -3 27 -6 40 -5 19 -2 22 19 22 22 0 27 -6 32 -34z m-3966
-421 c48 -24 81 -72 81 -115 0 -58 -21 -68 -53 -23 -20 28 -24 40 -15 50 7 9
14 11 21 4 7 -7 6 -15 -3 -26 -7 -8 -8 -15 -2 -15 5 0 15 6 21 14 10 11 7 22
-11 50 -26 40 -48 53 -59 34 -10 -15 -40 0 -47 23 -2 8 2 5 10 -5 8 -10 20
-16 26 -12 17 11 15 29 -3 22 -8 -3 -15 -1 -15 4 0 14 16 12 49 -5z m-79 -65
c0 -22 -4 -40 -9 -40 -7 0 -8 24 -3 68 4 28 12 9 12 -28z m574 -242 c5 -23 -8
-57 -16 -42 -3 5 -9 24 -13 41 -5 27 -4 32 8 27 8 -3 18 -15 21 -26z m-43
-108 c67 -16 133 -37 147 -46 24 -16 25 -17 6 -24 -46 -17 -76 -21 -69 -9 5 7
1 9 -11 6 -11 -3 -55 -13 -99 -22 l-81 -17 -64 27 c-36 14 -103 34 -149 44
l-83 17 73 22 c138 40 176 40 330 2z m4213 1 c-2 -36 -25 -102 -41 -119 -7 -7
-13 -21 -13 -30 0 -9 -5 -24 -10 -32 -6 -10 -7 3 -3 40 3 30 12 60 18 67 7 6
18 32 25 57 14 52 27 61 24 17z m-3433 -63 c21 -15 39 -31 39 -34 0 -3 -4 -2
-10 1 -13 8 -13 4 5 -39 8 -20 20 -36 25 -36 5 0 7 -6 4 -13 -2 -7 9 -34 26
-61 27 -42 30 -55 28 -111 -2 -62 -2 -62 -28 -55 -36 10 -68 -16 -64 -55 2
-15 9 -32 16 -37 10 -6 10 -10 -2 -18 -8 -5 -11 -10 -7 -10 17 0 56 33 50 43
-4 6 -1 7 7 2 9 -6 11 -4 5 5 -6 10 -11 10 -20 -4 -12 -15 -13 -15 -17 2 -4
16 0 19 23 18 16 -1 29 -5 29 -9 0 -4 0 -11 0 -16 0 -18 -97 -71 -160 -87
-131 -33 -303 21 -367 115 -20 30 -23 46 -23 135 0 69 3 96 10 86 7 -11 10 0
10 37 0 41 5 58 26 82 32 39 67 60 57 35 -5 -13 2 -12 38 7 65 33 126 48 197
47 53 -1 69 -6 103 -30z m1163 -73 c31 -47 61 -85 67 -85 7 0 0 -12 -14 -26
-14 -14 -31 -41 -37 -59 -16 -48 -46 -37 -53 18 -4 31 -15 50 -41 74 -39 36
-58 40 -98 19 -16 -9 -28 -10 -28 -5 0 11 132 149 142 149 4 0 32 -38 62 -85z
m-1609 -46 c4 -17 4 -33 1 -36 -3 -4 -6 5 -7 18 0 13 -3 18 -6 11 -2 -6 -10
-9 -16 -5 -6 4 -8 0 -5 -9 7 -17 -83 -113 -95 -102 -4 4 -15 0 -24 -8 -11 -9
-25 -13 -37 -9 -16 6 -15 11 18 42 20 18 58 44 84 56 42 20 44 22 17 20 -45
-3 -38 25 10 39 55 17 53 18 60 -17z m3622 -25 c-3 -3 -12 -4 -19 -1 -8 3 -5
6 6 6 11 1 17 -2 13 -5z m-1888 -43 c1 -1 -11 -17 -28 -36 -39 -45 -41 -84 -3
-125 54 -61 149 -48 189 27 15 28 19 30 24 16 8 -23 -14 -66 -47 -92 -36 -28
-114 -29 -160 0 -73 45 -95 132 -48 188 23 28 31 30 73 22z m417 -67 c19 -24
16 -99 -5 -118 -15 -14 -21 -15 -27 -4 -4 7 -4 10 1 6 13 -12 35 12 35 39 0
13 -4 21 -10 18 -6 -4 -7 1 -3 11 8 21 -22 45 -45 37 -10 -3 -29 -17 -44 -31
-26 -24 -27 -24 -21 -3 3 12 19 33 35 46 32 27 62 26 84 -1z m-654 4 c49 -39
15 -108 -52 -108 -29 0 -42 5 -50 19 -15 28 -13 36 16 70 27 33 59 40 86 19z
m311 4 c30 -2 67 -34 67 -57 0 -9 -11 -27 -25 -40 -52 -53 -155 -18 -155 53 0
47 9 51 113 44z m147 -13 c0 -11 -57 -12 -64 -1 -3 5 9 6 26 4 23 -4 29 -2 23
8 -5 9 -4 11 3 6 7 -4 12 -11 12 -17z m146 -54 c-9 -9 -16 -13 -16 -8 0 12 22
34 28 28 2 -2 -3 -11 -12 -20z m-2249 -37 c-3 -8 -6 -5 -6 6 -1 11 2 17 5 13
3 -3 4 -12 1 -19z m3663 0 c0 -5 -9 -4 -20 2 -11 6 -20 12 -20 14 0 2 9 2 20
-1 11 -3 20 -9 20 -15z m-450 -44 c5 -5 -30 -7 -79 -6 -82 4 -89 2 -118 -22
-18 -15 -34 -34 -36 -44 -2 -9 -3 -3 -1 13 2 17 16 41 31 54 25 22 33 23 111
18 46 -3 88 -9 92 -13z m-1121 -41 c-21 -25 -130 -93 -140 -87 -5 3 -21 -4
-36 -15 -16 -10 -39 -22 -51 -26 -19 -5 -23 -3 -20 10 2 10 30 25 78 41 41 14
82 31 90 39 8 7 25 16 37 19 11 4 27 13 33 21 7 8 15 15 17 15 3 0 -1 -8 -8
-17z m-1080 -25 c-1 -7 3 -26 9 -41 17 -40 16 -45 -17 -83 -26 -29 -31 -31
-43 -17 -17 21 -14 98 6 129 17 25 48 33 45 12z m2644 -10 c-12 -20 -10 -58 3
-58 6 0 18 9 25 20 13 18 16 18 34 4 11 -9 14 -14 6 -12 -8 2 -23 -4 -33 -14
-10 -10 -23 -16 -29 -13 -5 4 -8 1 -7 -6 2 -6 -3 -14 -9 -16 -21 -7 -21 70 -2
94 14 17 23 17 12 1z m-3567 -115 c-7 -7 -46 74 -46 94 0 10 11 -6 25 -36 14
-30 23 -56 21 -58z m2332 63 l27 -27 -29 11 c-16 6 -54 10 -85 9 -70 -1 -143
12 -148 28 -5 15 42 20 135 12 62 -5 77 -10 100 -33z m-1116 -13 c53 -29 128
-90 128 -105 0 -24 -102 0 -155 35 l-30 21 19 -22 c22 -26 119 -64 141 -56 8
4 15 1 15 -6 0 -6 5 -8 10 -5 6 4 11 -9 12 -29 0 -20 1 -41 2 -48 1 -6 -12
-16 -29 -21 -16 -6 -32 -13 -35 -16 -16 -20 -80 -60 -84 -53 -8 13 -86 300
-86 317 0 23 34 18 92 -12z m-193 -77 c14 -23 21 -61 26 -138 l7 -108 -36 0
c-33 0 -37 -2 -31 -21 6 -18 3 -20 -27 -17 l-33 3 -6 110 c-6 118 -4 135 15
135 17 0 41 74 31 91 -5 8 1 5 14 -5 12 -11 30 -33 40 -50z m575 43 c-10 -12
-49 -36 -86 -54 -37 -18 -64 -36 -60 -40 4 -5 -1 -5 -11 -2 -11 4 -25 -1 -38
-14 -11 -11 -23 -18 -27 -15 -7 8 18 27 98 75 36 22 74 46 85 55 11 8 29 16
39 16 19 0 19 0 0 -21z m-1374 -3 c0 -27 -175 -166 -210 -166 -5 0 -10 -9 -10
-19 0 -19 -14 -22 -37 -8 -7 5 -13 4 -13 -1 0 -10 -36 -9 -47 1 -3 4 6 20 22
37 23 24 31 27 47 19 21 -11 61 10 145 78 24 19 47 31 53 28 5 -3 10 3 10 14
0 17 11 28 33 30 4 1 7 -5 7 -13z m151 -46 c6 0 24 13 40 29 19 20 29 24 29
15 0 -27 -19 -51 -50 -64 -34 -14 -56 -3 -70 35 -14 37 1 48 21 16 10 -17 24
-31 30 -31z m1609 -116 c24 -8 48 -18 53 -23 8 -8 -200 -141 -222 -141 -6 0
-11 -7 -11 -16 0 -13 -6 -12 -37 7 -21 12 -55 31 -76 43 -21 11 -34 22 -28 24
8 3 53 -14 94 -35 4 -2 7 -1 7 2 0 10 -121 62 -161 69 -28 5 -39 2 -54 -14
-19 -21 -16 -23 25 -21 l25 1 -24 -10 -24 -11 32 -23 32 -24 -98 -61 c-54 -34
-112 -73 -129 -87 l-32 -25 -55 78 c-92 133 -92 133 -28 177 l41 29 25 -23
c13 -13 30 -39 36 -59 15 -46 32 -65 19 -22 -18 64 29 111 111 111 38 0 139
49 238 116 l33 22 82 -35 c44 -20 101 -42 126 -49z m490 1 c0 -12 3 -50 6 -84
l7 -62 -41 7 c-33 5 -43 3 -48 -10 -13 -34 -21 -3 -23 88 l-1 94 37 9 c43 11
63 -3 63 -42z m-2135 -5 c-5 -14 -2 -20 9 -20 21 0 20 -16 -1 -24 -10 -3 -23
-8 -29 -11 -6 -3 -14 4 -17 16 -4 13 -10 19 -19 14 -7 -3 1 5 17 19 36 31 49
33 40 6z m294 11 c25 -16 6 -35 -37 -37 -34 -2 -42 1 -42 15 0 10 3 21 7 24 9
10 55 8 72 -2z m3409 -50 c3 -9 0 -11 -8 -6 -9 5 -11 4 -6 -4 8 -12 -51 -68
-67 -63 -5 1 -6 -2 -3 -6 3 -5 -19 -33 -49 -61 l-54 -51 -230 0 c-127 0 -231
2 -231 4 0 3 16 17 35 32 32 24 44 27 101 25 56 -2 73 2 119 28 29 16 55 28
57 25 3 -2 11 2 17 10 7 8 20 12 28 9 10 -4 14 -2 10 4 -7 10 33 33 58 33 8 0
15 4 15 8 0 31 198 43 208 13z m-4179 -5 c-2 -2 -40 -6 -84 -9 -88 -5 -118
-14 -108 -30 3 -6 1 -7 -5 -3 -6 4 -21 2 -32 -4 -11 -6 -20 -8 -20 -6 0 3 21
17 48 30 38 20 62 25 126 26 44 0 77 -2 75 -4z m2139 -75 c-40 -33 -75 -57
-77 -55 -3 3 4 11 15 18 10 8 42 32 69 55 28 22 54 40 58 41 4 0 -25 -27 -65
-59z m-1587 -11 c24 0 42 7 54 20 10 11 20 18 23 16 8 -9 -64 -65 -135 -106
l-72 -42 -82 21 c-108 27 -118 27 -169 -10 l-43 -31 -86 17 c-47 9 -102 17
-123 18 -27 2 -36 6 -35 18 1 9 6 15 13 12 7 -2 15 1 20 8 4 8 3 10 -4 5 -8
-5 -10 -2 -6 8 5 13 37 22 47 14 1 -2 19 8 39 20 28 18 46 22 68 17 16 -4 47
-1 67 6 21 7 72 17 113 23 66 10 87 8 175 -11 55 -12 116 -22 136 -23z m483
32 c6 -10 -197 -159 -278 -204 -49 -27 -56 -28 -196 -28 l-145 0 90 55 c58 35
95 53 105 48 51 -24 154 12 227 80 26 25 59 47 73 49 56 8 119 8 124 0z m1350
-121 c-96 -94 -138 -129 -160 -132 -16 -2 -171 -2 -344 1 l-315 5 100 49 100
49 60 -23 c117 -43 173 -54 215 -41 55 16 175 99 240 165 l54 56 91 0 90 -1
-131 -128z m-2667 96 c0 -8 -6 -14 -14 -14 -9 0 -10 4 -2 14 6 7 12 13 14 13
1 0 2 -6 2 -13z m971 -32 c-3 -3 -9 2 -12 12 -6 14 -5 15 5 6 7 -7 10 -15 7
-18z m673 -17 c12 -24 41 -71 65 -104 24 -34 44 -63 44 -65 0 -7 -340 8 -347
14 -3 4 2 16 12 27 17 19 17 19 -31 14 l-49 -6 3 56 4 56 66 -1 c52 -1 61 -3
40 -9 -26 -8 -98 -48 -98 -55 0 -1 7 -6 16 -9 8 -3 12 -2 9 4 -7 12 53 50 78
50 26 0 17 -32 -13 -47 -18 -9 -20 -13 -7 -13 9 0 54 29 99 65 45 36 84 65 85
65 1 0 12 -19 24 -42z m688 -20 c-2 -2 -20 -16 -39 -33 l-35 -30 34 37 c19 21
37 36 39 33 3 -3 3 -6 1 -7z m691 -49 c0 -10 -25 -11 -57 -3 -22 6 -22 7 -6
34 l16 28 24 -26 c12 -14 23 -29 23 -33z m-3150 36 c-7 -8 -17 -15 -23 -15 -6
0 -2 7 9 15 25 19 30 19 14 0z m726 -36 c32 -11 71 -21 87 -21 31 1 33 -5 11
-29 -12 -14 -22 -15 -48 -8 -37 10 -171 30 -200 30 -17 0 -17 2 4 25 29 30 67
31 146 3z m2242 -6 c-10 -2 -26 -2 -35 0 -10 3 -2 5 17 5 19 0 27 -2 18 -5z
m36 -29 c24 -9 1 -34 -31 -34 -13 0 -33 -5 -44 -10 -17 -10 -19 -7 -19 20 0
28 2 30 39 30 22 0 47 -3 55 -6z m103 -23 c7 7 10 4 9 -10 -1 -24 -1 -24 -57
-15 -40 7 -41 7 -18 20 15 7 30 9 40 4 9 -6 20 -5 26 1z m-31 -49 c19 -13 24
-40 8 -46 -23 -9 -87 -7 -102 3 -11 6 -7 13 14 30 27 21 60 27 80 13z m-307
-480 c1 -19 6 -23 29 -20 l27 3 5 155 c4 134 6 147 13 91 9 -77 9 -227 1 -269
l-6 -31 -49 18 c-26 10 -50 16 -53 13 -4 -3 -6 89 -6 204 0 155 3 213 13 223
10 10 13 -25 18 -176 4 -103 7 -198 8 -211z m-1162 354 c2 -2 6 -125 10 -275
3 -149 9 -274 13 -276 9 -5 -7 -96 -18 -106 -4 -3 -26 -4 -49 -1 -41 4 -43 6
-42 36 1 17 4 42 8 56 9 32 -8 78 -31 86 -27 8 -78 54 -78 69 0 7 -11 15 -23
19 -23 5 -24 10 -30 127 -4 67 -6 147 -6 178 l2 56 7 -55 c5 -30 8 -108 9
-173 1 -99 4 -119 17 -124 42 -16 46 2 44 206 l-1 193 83 -7 c46 -4 84 -8 85
-9z m-307 -48 c0 -24 3 -101 6 -173 4 -83 2 -125 -4 -117 -5 8 -13 14 -18 15
-5 1 -8 11 -7 22 1 11 0 30 -3 42 -4 23 -5 23 -139 16 l-135 -6 0 26 c0 23 4
27 29 27 30 0 58 20 191 134 36 30 68 55 73 56 4 0 7 -19 7 -42z m431 -300
c47 -39 49 -31 49 162 l0 180 53 0 c28 0 75 -3 104 -6 l52 -7 -14 -28 c-21
-40 -18 -64 9 -78 13 -7 33 -26 45 -42 15 -20 33 -31 62 -35 46 -8 54 -19 40
-57 -9 -22 -17 -27 -44 -27 -48 0 -157 -68 -179 -111 -10 -19 -18 -30 -18 -25
0 5 -6 4 -12 -2 -7 -5 -27 -13 -45 -17 -18 -3 -57 -19 -88 -35 l-55 -28 0 82
c0 46 3 159 8 252 l7 169 3 -165 c2 -154 4 -166 23 -182z m-1251 284 c0 -29
29 -62 56 -62 17 0 24 -5 24 -19 0 -11 9 -26 20 -34 20 -14 19 -15 -17 -21
-21 -3 -53 -6 -70 -6 l-33 0 0 80 c0 47 4 80 10 80 6 0 10 -8 10 -18z m2515
-11 c44 -6 124 -11 178 -13 l97 -2 0 -189 c0 -110 4 -196 10 -208 15 -28 -23
-77 -67 -85 -40 -8 -93 12 -93 35 0 19 -57 54 -65 40 -4 -5 -14 -9 -24 -9 -26
0 -153 68 -141 75 6 4 10 84 10 198 0 106 4 187 8 180 4 -6 43 -16 87 -22z
m891 -28 c12 -67 31 -93 70 -93 21 0 34 -23 34 -62 0 -16 -11 -18 -94 -18
l-94 0 -7 50 c-9 63 11 139 40 151 36 14 44 10 51 -28z m-502 -14 c3 -17 6
-68 6 -113 0 -44 5 -99 10 -120 8 -36 6 -41 -21 -67 -16 -15 -29 -32 -29 -38
0 -6 -4 -11 -10 -11 -11 0 -14 221 -4 319 6 49 10 61 24 61 12 0 20 -11 24
-31z m212 6 c8 -33 50 -65 84 -65 24 0 28 -5 33 -37 8 -48 4 -53 -47 -53 -49
0 -117 -21 -196 -60 -13 -6 -15 9 -12 111 l3 118 52 4 c29 2 58 4 64 5 7 1 15
-9 19 -23z m-2748 -24 c15 -10 37 -22 50 -25 23 -8 26 -16 16 -53 -6 -22 -12
-23 -93 -23 l-88 0 -10 35 c-11 33 -10 34 22 45 18 6 39 18 45 26 16 19 27 18
58 -5z m-571 -103 c-2 -13 -4 -5 -4 17 -1 22 1 32 4 23 2 -10 2 -28 0 -40z
m2361 -87 l-3 -50 -80 35 c-44 20 -82 37 -83 39 -3 3 40 71 64 103 1 2 11 -2
21 -9 15 -9 25 -8 49 4 l29 15 3 -44 c2 -24 2 -66 0 -93z m-298 95 c0 -13 2
-30 5 -38 4 -10 -6 -12 -42 -10 -55 4 -58 7 -67 45 -6 27 -6 27 49 27 52 0 55
-2 55 -24z m1399 -70 c-2 -2 -22 -6 -44 -9 -27 -4 -35 -3 -25 3 14 9 79 15 69
6z"/>
<path d="M1337 2618 c-15 -28 -17 -54 -14 -178 l3 -145 2 155 c1 100 6 150 12
140 13 -21 22 -7 18 30 l-3 31 -18 -33z"/>
<path d="M1186 2623 c-11 -11 -6 -23 9 -23 8 0 15 4 15 9 0 13 -16 22 -24 14z"/>
<path d="M1000 2583 c0 -22 -2 -25 -11 -13 -8 12 -10 11 -7 -5 2 -14 11 -20
28 -20 21 0 25 5 25 30 0 20 -5 31 -17 33 -14 3 -18 -3 -18 -25z"/>
<path d="M1331 2198 l-1 -28 -85 0 c-50 0 -85 -4 -85 -10 0 -6 36 -10 89 -10
96 0 109 8 91 52 -8 22 -9 22 -9 -4z"/>
<path d="M1437 1840 c-15 -12 -27 -28 -27 -37 0 -12 3 -13 14 -4 8 7 27 16 43
20 30 8 38 34 12 39 -8 1 -27 -7 -42 -18z"/>
<path d="M1720 1835 c0 -8 16 -19 38 -25 20 -6 46 -17 56 -25 25 -19 43 -19
43 0 0 8 -4 15 -9 15 -5 0 -26 11 -46 25 -41 28 -82 33 -82 10z"/>
<path d="M1437 1768 c-38 -29 -43 -102 -10 -139 13 -15 12 -17 -4 -15 -23 1
-30 -46 -9 -63 13 -11 22 -7 54 20 44 36 45 59 3 59 -37 0 -51 17 -51 61 0 63
41 88 81 48 11 -11 23 -18 26 -15 8 7 -44 56 -60 56 -7 0 -21 -6 -30 -12z"/>
<path d="M1735 1743 c-5 -15 -4 -16 6 -5 23 22 60 13 94 -21 26 -26 33 -40 28
-58 -8 -33 -32 -59 -68 -75 -25 -10 -27 -14 -13 -19 42 -16 86 25 103 96 14
58 -129 136 -150 82z"/>
<path d="M1450 1685 c-11 -13 -11 -19 2 -32 15 -14 17 -13 27 5 15 27 -10 50
-29 27z"/>
<path d="M1765 1690 c-3 -5 1 -10 9 -10 21 0 20 -17 -1 -28 -24 -14 -9 -44 19
-40 27 4 35 36 18 67 -11 22 -35 28 -45 11z"/>
<path d="M1565 1570 c0 -26 2 -28 12 -14 6 9 9 22 6 30 -9 24 -18 16 -18 -16z"/>
<path d="M1596 1553 c-6 -14 -5 -15 5 -6 7 7 10 15 7 18 -3 3 -9 -2 -12 -12z"/>
<path d="M1766 1531 c-7 -11 3 -41 14 -41 14 0 21 17 14 34 -7 18 -20 21 -28
7z"/>
<path d="M1530 1508 c0 -17 51 -48 80 -48 28 0 76 26 83 45 8 19 -2 19 -27 0
-20 -15 -83 -12 -118 7 -13 6 -18 5 -18 -4z"/>
<path d="M2810 1650 c0 -5 6 -10 14 -10 8 0 18 5 21 10 3 6 -3 10 -14 10 -12
0 -21 -4 -21 -10z"/>
<path d="M3090 1645 c-13 -16 -6 -35 15 -35 12 0 25 21 25 41 0 14 -26 11 -40
-6z"/>
<path d="M3165 1650 c3 -5 8 -10 11 -10 2 0 4 5 4 10 0 6 -5 10 -11 10 -5 0
-7 -4 -4 -10z"/>
<path d="M5185 1140 c-3 -5 1 -10 9 -10 9 0 16 5 16 10 0 6 -4 10 -9 10 -6 0
-13 -4 -16 -10z"/>
<path d="M5280 1120 c0 -6 7 -10 15 -10 8 0 15 2 15 4 0 2 -7 6 -15 10 -8 3
-15 1 -15 -4z"/>
<path d="M1355 930 c-3 -5 -1 -10 4 -10 6 0 11 5 11 10 0 6 -2 10 -4 10 -3 0
-8 -4 -11 -10z"/>
<path d="M1548 893 c7 -3 16 -2 19 1 4 3 -2 6 -13 5 -11 0 -14 -3 -6 -6z"/>
<path d="M2068 3993 c7 -3 16 -2 19 1 4 3 -2 6 -13 5 -11 0 -14 -3 -6 -6z"/>
<path d="M2963 3983 c9 -2 25 -2 35 0 9 3 1 5 -18 5 -19 0 -27 -2 -17 -5z"/>
<path d="M3190 3965 c0 -14 2 -25 4 -25 2 0 6 11 8 25 3 14 1 25 -3 25 -5 0
-9 -11 -9 -25z"/>
<path d="M2092 3965 c-30 -7 -58 -17 -64 -23 -6 -6 7 -4 28 3 22 8 58 14 81
15 23 0 45 5 48 10 8 13 -27 11 -93 -5z"/>
<path d="M2830 3930 c0 -5 5 -10 10 -10 6 0 10 5 10 10 0 6 -4 10 -10 10 -5 0
-10 -4 -10 -10z"/>
<path d="M2115 3920 c-4 -6 -21 -20 -39 -31 l-31 -19 45 1 c25 0 54 5 65 10
15 7 8 8 -25 5 l-45 -5 24 20 c13 11 21 22 18 25 -3 3 -8 0 -12 -6z"/>
<path d="M3725 3849 c-16 -10 -26 -19 -22 -19 11 0 67 29 67 35 0 9 -15 4 -45
-16z"/>
<path d="M1951 3844 c0 -11 3 -14 6 -6 3 7 2 16 -1 19 -3 4 -6 -2 -5 -13z"/>
<path d="M2602 3758 c7 -15 15 -23 17 -17 2 6 -4 18 -13 27 -15 15 -15 15 -4
-10z"/>
<path d="M2509 3743 c-13 -16 -12 -17 4 -4 9 7 17 15 17 17 0 8 -8 3 -21 -13z"/>
<path d="M3649 3703 c-13 -17 -13 -17 6 -3 11 8 22 16 24 17 2 2 0 3 -6 3 -6
0 -17 -8 -24 -17z"/>
<path d="M3696 3700 c7 -8 14 -24 17 -35 4 -19 5 -19 6 1 0 12 -7 28 -16 35
-16 12 -17 12 -7 -1z"/>
<path d="M3614 3658 l-19 -23 23 19 c21 18 27 26 19 26 -2 0 -12 -10 -23 -22z"/>
<path d="M3646 3583 c-6 -14 -5 -15 5 -6 7 7 10 15 7 18 -3 3 -9 -2 -12 -12z"/>
<path d="M3616 3515 c24 -39 24 -40 24 -28 0 6 -9 21 -21 34 l-20 24 17 -30z"/>
<path d="M2513 3063 c9 -2 25 -2 35 0 9 3 1 5 -18 5 -19 0 -27 -2 -17 -5z"/>
<path d="M2768 3048 c-45 -26 -51 -45 -8 -23 30 15 135 21 143 8 3 -5 -16 -9
-42 -10 -51 -2 -135 -35 -123 -49 4 -4 -1 -2 -11 5 -9 8 -15 16 -12 19 7 8
-91 62 -112 62 -11 -1 -6 -6 13 -14 40 -18 49 -33 32 -53 -11 -14 -11 -16 2
-8 13 8 13 7 1 -8 -16 -21 -31 -22 -31 -3 0 8 -12 24 -27 36 -22 17 -36 20
-67 15 -22 -3 -46 -10 -52 -16 -9 -7 -13 -4 -16 12 -6 40 -30 45 -99 19 -53
-20 -78 -38 -144 -104 -46 -46 -92 -104 -108 -134 -26 -52 -36 -82 -18 -53 6
10 11 5 16 -19 4 -20 15 -34 26 -37 17 -5 19 -16 19 -107 0 -55 -6 -130 -13
-166 -6 -36 -12 -100 -12 -142 0 -42 -1 -75 -3 -73 -2 2 -12 30 -22 62 -11 32
-19 49 -19 38 -1 -41 18 -99 40 -119 12 -12 18 -14 14 -6 -5 8 10 -4 32 -27
44 -47 66 -58 34 -17 -24 31 -28 52 -6 34 8 -7 15 -9 15 -6 0 4 17 -5 37 -19
21 -14 41 -25 45 -25 4 0 22 16 40 36 25 26 44 37 76 41 37 5 42 3 42 -13 0
-11 7 -30 16 -43 12 -17 22 -21 41 -16 16 4 22 2 18 -5 -3 -5 1 -10 10 -10 9
0 14 -4 10 -9 -3 -5 -1 -12 4 -16 5 -3 14 3 20 12 9 16 10 16 11 -4 0 -14 6
-23 15 -23 18 0 20 -31 3 -48 -7 -7 -25 -12 -40 -12 -26 0 -28 -3 -28 -39 0
-22 4 -43 10 -46 14 -9 70 26 71 45 0 10 3 9 8 -5 5 -11 4 -22 0 -26 -5 -3 6
-5 25 -6 28 -1 42 8 81 47 40 41 47 53 43 78 -4 29 -2 31 39 37 53 8 155 74
182 119 25 39 27 88 6 146 -8 23 -15 43 -15 44 0 1 37 -2 83 -6 45 -4 145 -12
222 -17 77 -6 155 -14 174 -17 l35 -6 -37 38 c-20 20 -41 50 -48 66 l-11 28
-203 0 -202 0 4 68 c6 74 -8 168 -32 215 -18 37 -18 37 -1 37 23 0 76 50 76
71 0 11 5 17 10 14 16 -10 12 7 -11 45 -70 117 -180 161 -271 108z m-328 -8
c0 -5 -10 -10 -22 -10 -40 0 -122 -56 -179 -122 -73 -83 -103 -136 -89 -153
12 -15 -3 -30 -20 -20 -13 8 -13 55 0 75 7 11 10 11 10 2 0 -7 4 -11 9 -8 5 3
7 14 5 24 -6 20 51 92 72 92 8 0 14 6 14 13 0 20 49 61 109 90 57 28 91 34 91
17z m141 -41 l21 -21 -23 -24 c-19 -21 -24 -22 -31 -9 -13 22 -38 19 -38 -5 0
-13 -9 -22 -27 -26 -16 -3 -34 -8 -42 -10 -8 -3 -11 1 -7 11 8 22 -14 65 -33
65 -9 0 -24 -7 -34 -14 -15 -12 -17 -18 -7 -36 10 -18 14 -19 27 -8 15 12 15
13 0 16 -10 2 -17 8 -17 13 0 6 8 9 18 7 11 -2 17 -12 17 -28 0 -23 -4 -25
-45 -25 -40 0 -45 3 -48 23 -4 26 22 60 54 72 27 11 64 2 64 -15 0 -7 6 -18
14 -24 10 -9 16 -8 26 4 7 8 9 15 5 15 -4 0 -2 7 5 15 7 8 24 13 41 11 16 -2
26 1 23 5 -10 18 16 9 37 -12z m214 -19 c3 -6 -1 -7 -9 -4 -18 7 -21 14 -7 14
6 0 13 -4 16 -10z m-210 -69 c-6 -5 -21 -11 -35 -15 -21 -5 -20 -3 5 9 35 17
42 18 30 6z m-165 -31 c-29 -19 -111 -42 -127 -36 -29 12 4 30 65 37 31 3 62
7 67 7 6 1 3 -3 -5 -8z m33 -47 c-13 -2 -33 -2 -45 0 -13 2 -3 4 22 4 25 0 35
-2 23 -4z m217 -168 c22 -25 30 -45 21 -57 -1 -2 -4 -20 -6 -40 -2 -21 -11
-53 -19 -70 -8 -18 -17 -49 -19 -68 -3 -19 -8 -46 -13 -59 -4 -14 -3 -22 2
-19 5 3 27 -1 49 -7 l40 -12 -60 -22 c-102 -38 -200 -48 -291 -28 -43 9 -95
28 -116 42 -61 41 -72 71 -76 223 l-4 132 36 0 c20 0 95 7 167 16 130 16 153
14 131 -8 -7 -7 -12 -15 -12 -19 0 -10 112 20 125 33 7 7 2 8 -15 3 -24 -7
-24 -7 -5 8 18 14 21 14 29 -1 5 -9 21 -30 36 -47z m-66 -480 c-4 -8 -10 -15
-15 -15 -5 0 -9 -9 -9 -20 0 -12 -7 -20 -16 -20 -11 0 -14 5 -9 18 4 9 10 25
12 35 3 9 14 17 24 17 12 0 16 -5 13 -15z m-87 -32 c-8 -9 -20 -12 -26 -9 -16
10 -14 26 3 20 7 -3 17 3 21 13 5 13 9 14 12 5 3 -8 -2 -21 -10 -29z m152 -43
c19 -14 51 -71 51 -90 0 -26 -17 -60 -30 -60 -14 0 -40 99 -39 149 1 25 4 37
6 26 3 -11 8 -22 12 -25z"/>
<path d="M2562 2658 c7 -20 48 -23 48 -4 0 11 -9 16 -26 16 -16 0 -24 -5 -22
-12z"/>
<path d="M2241 2601 c-31 -24 -26 -66 9 -66 19 0 25 6 31 32 9 43 -9 57 -40
34z m19 -32 c0 -11 -4 -17 -10 -14 -5 3 -10 13 -10 21 0 8 5 14 10 14 6 0 10
-9 10 -21z"/>
<path d="M2542 2598 c-15 -15 -16 -55 -2 -63 15 -9 40 13 40 35 0 26 -23 43
-38 28z m5 -40 c-3 -7 -5 -2 -5 12 0 14 2 19 5 13 2 -7 2 -19 0 -25z"/>
<path d="M2380 2484 c0 -6 7 -17 15 -24 13 -11 18 -11 28 0 9 10 9 11 -1 5 -8
-4 -19 0 -27 11 -8 11 -15 14 -15 8z"/>
<path d="M2239 2430 c-6 -20 -5 -50 1 -50 14 0 21 33 10 44 -5 5 -11 8 -11 6z"/>
<path d="M2351 2422 c-1 -21 27 -69 44 -76 32 -12 51 -6 83 27 18 18 32 36 32
40 0 4 -16 -8 -35 -28 -20 -19 -44 -35 -54 -35 -21 0 -46 25 -60 60 -5 14 -10
19 -10 12z"/>
<path d="M4690 2846 c0 -8 16 -16 42 -20 43 -7 66 3 53 24 -6 9 -9 9 -16 -1
-6 -10 -13 -10 -34 -1 -34 16 -45 15 -45 -2z"/>
<path d="M2071 2714 c0 -12 8 -32 20 -45 l21 -24 -15 25 c-8 14 -17 35 -20 45
-4 18 -5 18 -6 -1z"/>
<path d="M4713 2663 c-15 -6 -17 -39 -3 -48 12 -7 23 17 18 38 -1 8 -9 12 -15
10z"/>
<path d="M3495 2611 c0 -25 3 -28 18 -19 21 11 19 41 -3 46 -11 2 -15 -6 -15
-27z"/>
<path d="M3776 2615 c4 -16 2 -25 -6 -25 -6 0 -8 -4 -5 -10 10 -16 34 -11 45
9 13 26 3 51 -21 51 -16 0 -18 -5 -13 -25z"/>
<path d="M4415 2600 c16 -17 45 -35 65 -40 40 -10 187 -16 196 -7 3 3 0 22 -7
41 l-13 36 -135 0 -135 0 29 -30z"/>
<path d="M4860 2614 c0 -8 5 -12 10 -9 6 3 10 10 10 16 0 5 -4 9 -10 9 -5 0
-10 -7 -10 -16z"/>
<path d="M3819 2563 c-13 -16 -12 -17 4 -4 16 13 21 21 13 21 -2 0 -10 -8 -17
-17z"/>
<path d="M3607 2564 c-15 -15 -7 -45 11 -42 9 2 17 12 17 22 0 20 -16 31 -28
20z"/>
<path d="M4820 2552 c0 -5 7 -15 16 -22 12 -11 18 -10 32 4 16 16 16 17 -1 10
-9 -3 -24 -1 -32 6 -8 7 -15 8 -15 2z"/>
<path d="M4988 2509 c-9 -14 -31 -30 -50 -36 l-33 -11 31 -1 c39 -1 78 28 73
54 -4 17 -6 16 -21 -6z"/>
<path d="M1724 2484 c5 -10 10 -26 13 -36 5 -18 39 -23 237 -34 129 -7 136 -4
136 49 l0 27 -103 0 c-57 0 -146 3 -197 7 -89 6 -93 5 -86 -13z"/>
<path d="M3540 2483 c0 -6 12 -26 26 -43 32 -37 65 -35 102 6 33 37 27 51 -7
15 -37 -40 -63 -39 -95 2 -14 17 -26 27 -26 20z"/>
<path d="M4255 2190 c-10 -11 -16 -22 -13 -25 3 -3 13 6 22 20 20 30 16 32 -9
5z"/>
<path d="M2939 2123 c-13 -15 -12 -15 9 -4 23 12 28 21 13 21 -5 0 -15 -7 -22
-17z"/>
<path d="M2365 2065 c-18 -68 -23 -72 -58 -53 -20 10 -21 10 -9 -5 17 -20 19
-106 5 -164 -13 -53 -3 -54 34 -7 l27 36 82 -6 c74 -6 82 -5 86 12 5 17 -1 18
-85 14 l-90 -5 6 54 c4 30 11 83 16 119 6 35 9 66 7 67 -2 2 -11 -26 -21 -62z"/>
<path d="M3640 2097 c0 -9 -4 -17 -10 -17 -5 0 -10 -7 -10 -15 0 -19 -3 -19
-51 6 -41 20 -70 17 -35 -5 63 -38 67 -45 64 -109 -2 -49 0 -62 12 -64 13 -3
18 16 27 104 6 59 9 110 7 112 -2 2 -4 -3 -4 -12z"/>
<path d="M2255 1860 c-14 -16 -15 -20 -4 -20 16 0 39 19 39 32 0 14 -16 9 -35
-12z"/>
<path d="M4364 1816 c-8 -20 23 -69 39 -63 7 2 12 19 12 38 0 28 -4 35 -23 37
-13 2 -25 -3 -28 -12z"/>
<path d="M4035 1720 c-3 -5 -1 -10 4 -10 6 0 11 5 11 10 0 6 -2 10 -4 10 -3 0
-8 -4 -11 -10z"/>
<path d="M4077 1710 c-3 -11 -1 -20 4 -20 5 0 9 9 9 20 0 11 -2 20 -4 20 -2 0
-6 -9 -9 -20z"/>
<path d="M4386 1722 c6 -4 14 -14 17 -22 4 -10 6 -8 6 8 1 15 -5 22 -16 22
-11 0 -14 -3 -7 -8z"/>
<path d="M3975 1710 c-18 -8 -17 -9 8 -9 16 -1 26 3 22 9 -3 6 -7 10 -8 9 -1
0 -11 -4 -22 -9z"/>
<path d="M4570 1695 c-15 -18 -46 -20 -53 -2 -4 8 -6 9 -6 0 -1 -6 6 -19 15
-28 16 -15 19 -15 42 9 14 14 23 28 20 31 -3 3 -11 -1 -18 -10z"/>
<path d="M2730 1683 c0 -5 5 -15 10 -23 8 -12 10 -11 10 8 0 12 -4 22 -10 22
-5 0 -10 -3 -10 -7z"/>
<path d="M2920 1573 c0 -28 24 -40 45 -23 24 20 17 37 -15 42 -26 4 -30 1 -30
-19z"/>
</g>
</svg>
